# xmcd
# 
# Track frame offsets:
#     150
#     21118
#     39962
#     56977
#     81585
#     96821
#     110745
#     133235
#     151697
#     171016
#     187793
# 
# Disc length: 2677
# 
# Revision: 0
# Processed by: cddbd v1.5.2PL0 Copyright (c) Steve Scherf et al.
# Submitted via: BonkEnc v1.0.8
# 
DISCID=8b0a730b
DTITLE=Lady Antebellum - Need You Now
DYEAR=2010
DGENRE=Country
TTITLE0=Need You Now
TTITLE1=Our Kind Of Love
TTITLE2=American Honey
TTITLE3=Hello World
TTITLE4=Perfect Day
TTITLE5=Love This Pain
TTITLE6=When I Got A Good Thing Going
TTITLE7=Stars Tonight
TTITLE8=If I Knew Then
TTITLE9=Something 'Bout A Woman
TTITLE10=Ready To Love Again
EXTD=
EXTT0=
EXTT1=
EXTT2=
EXTT3=
EXTT4=
EXTT5=
EXTT6=
EXTT7=
EXTT8=
EXTT9=
EXTT10=
PLAYORDER=
